<?xml version="1.0" encoding="UTF-8" standalone="no"?>
<svg
   xmlns:dc="http://purl.org/dc/elements/1.1/"
   xmlns:cc="http://creativecommons.org/ns#"
   xmlns:rdf="http://www.w3.org/1999/02/22-rdf-syntax-ns#"
   xmlns:svg="http://www.w3.org/2000/svg"
   xmlns="http://www.w3.org/2000/svg"
   xmlns:sodipodi="http://sodipodi.sourceforge.net/DTD/sodipodi-0.dtd"
   xmlns:inkscape="http://www.inkscape.org/namespaces/inkscape"
   width="210mm"
   height="297mm"
   viewBox="0 0 210 297"
   version="1.1"
   id="svg57"
   inkscape:export-filename="C:\Users\vidal\bitmap.png"
   inkscape:export-xdpi="96"
   inkscape:export-ydpi="96"
   inkscape:version="1.0.2 (e86c870879, 2021-01-15, custom)"
   sodipodi:docname="completa ai texto.svg">
  <defs
     id="defs51" />
  <sodipodi:namedview
     id="base"
     pagecolor="#ffffff"
     bordercolor="#666666"
     borderopacity="1.0"
     inkscape:pageopacity="0.0"
     inkscape:pageshadow="2"
     inkscape:zoom="0.7"
     inkscape:cx="59.264665"
     inkscape:cy="596.67667"
     inkscape:document-units="mm"
     inkscape:current-layer="layer1"
     inkscape:document-rotation="0"
     showgrid="false"
     inkscape:window-width="1920"
     inkscape:window-height="1027"
     inkscape:window-x="1272"
     inkscape:window-y="-8"
     inkscape:window-maximized="1" />
  <metadata
     id="metadata54">
    <rdf:RDF>
      <cc:Work
         rdf:about="">
        <dc:format>image/svg+xml</dc:format>
        <dc:type
           rdf:resource="http://purl.org/dc/dcmitype/StillImage" />
        <dc:title></dc:title>
      </cc:Work>
    </rdf:RDF>
  </metadata>
  <g
     inkscape:label="Layer 1"
     inkscape:groupmode="layer"
     id="layer1">
    <g
       id="g157">
      <path
         style="fill:#e43434;fill-opacity:1;stroke:#000000;stroke-width:0.244999px;stroke-linecap:butt;stroke-linejoin:miter;stroke-opacity:1"
         d="m 126.66512,173.0263 c -5.12277,7.04915 -1.08904,7.43433 3.17574,5.83238 l 9.69432,-11.84148 c 1.52868,-4.24098 -6.69684,-5.7313 -8.76505,-0.50739 z"
         id="path51"
         sodipodi:nodetypes="ccccc" />
      <path
         style="fill:#e43434;fill-opacity:1;stroke:#000000;stroke-width:0.244999px;stroke-linecap:butt;stroke-linejoin:miter;stroke-opacity:1"
         d="m 123.50277,186.47257 c 1.46613,-4.49785 7.55822,-7.22759 8.25689,0.94024 l -3.42979,19.87956 c 0.005,2.80725 0.71809,5.64661 5.71631,0.26863 1.53534,-1.18952 2.1293,-4.03808 2.66762,-6.9847 -0.21172,-5.01808 7.83346,-8.08567 7.36769,0 -5.04814,23.96404 -20.19353,17.07379 -21.72198,15.44695 -8.06262,7.07321 -13.46244,5.41788 -18.16517,1.47754 -7.765291,10.10749 -19.67288,7.17441 -22.103076,-4.43262 l 6.478488,-35.19218 c 2.871889,-6.61327 12.467088,-11.89869 19.562488,-6.04444 0.89406,-5.13025 10.03583,-7.97019 9.40016,1.20888 l -5.97037,33.71464 c -2.84218,6.12269 4.16069,11.3585 8.38392,-1.47751 2.01083,-7.89063 2.20354,-11.95732 3.55682,-18.80499 z"
         id="path57"
         sodipodi:nodetypes="ccccccccccccccc" />
      <path
         style="fill:#ffffff;fill-opacity:1;stroke:#000000;stroke-width:0.244999px;stroke-linecap:butt;stroke-linejoin:miter;stroke-opacity:1"
         d="m 96.064465,185.12935 -4.06493,22.02869 c -1.929764,9.47376 7.774795,9.81755 9.527185,0.40296 l 4.44602,-21.22274 c 1.6658,-12.37847 -10.169563,-8.14101 -9.908275,-1.20891 z"
         id="path59"
         sodipodi:nodetypes="ccccc" />
    </g>
    <g
       id="g171">
      <path
         style="fill:#e43434;fill-opacity:1;stroke:#000000;stroke-width:0.244999px;stroke-linecap:butt;stroke-linejoin:miter;stroke-opacity:1"
         d="m 24.391576,126.6135 c 0.651166,-5.08012 -4.251157,-3.81501 -5.40041,0 l -3.205696,21.46913 c -1.903178,6.60417 13.809808,10.16791 16.992838,-1.22367 1.0378,-3.9817 1.769544,-7.70449 1.835475,-10.86405 1.384117,-9.09536 13.891963,-14.77784 20.251544,-4.69071 0.743514,4.2302 0.440195,8.01763 -1.735847,11.01296 0.339619,4.2044 5.324435,0.5145 5.979027,-3.2631 l 1.735848,-11.42084 c -0.07875,-2.05922 2.483038,-7.49545 6.777017,-4.48001 0.851395,-2.69652 7.866683,-2.98298 9.470837,-0.63986 1.860738,-3.32304 10.501588,-6.65565 15.017501,0.6331 1.049592,4.73537 -0.650833,9.76153 -1.37022,14.68395 -1.502266,6.25853 2.963315,5.3824 5.786155,-1.63156 l 2.893079,-17.74309 c 0.999186,-5.95854 6.838486,-4.6888 6.797136,-2.70056 0,0 18.29329,-9.85748 10.22221,20.39436 1.7577,-0.23674 3.59504,-1.73673 5.73953,-8.10844 l 4.24318,-28.348178 c -0.74199,-3.960184 7.67187,-7.963991 7.13626,0.407888 l -4.8218,30.79549 c -0.75805,4.17686 2.21191,8.28633 6.75051,-4.28281 0.78781,-9.98714 3.03396,-17.40419 8.48636,-19.17071 16.97273,-3.26309 16.37141,22.39678 -0.77148,18.35494 -3.90662,-0.55579 3.51523,16.55608 15.044,-3.05916 l 1.54298,-11.62479 c -5.94608,0.29561 -5.11963,-5.78725 1.15723,-6.93408 l 1.92872,-11.216907 c -0.56455,-2.986711 6.09188,-8.227703 7.13625,0 l -1.54297,9.789297 c 6.38634,-0.72825 8.20114,5.41292 -1.35011,6.93409 l -2.07497,15.25998 c -1.14021,3.44542 4.76246,5.23901 7.90776,-2.03944 3.62398,-15.70825 1.34512,-23.777266 15.19025,-22.19407 1.23597,-2.267546 5.91326,-4.441807 7.52201,1.01972 l -2.1216,14.48 c -2.33677,7.86173 2.41773,10.15339 5.78614,0.61183 0.39845,-6.79483 6.60542,-11.42938 6.75052,-1.01972 -6.53847,21.73188 -20.44178,10.57517 -18.12994,12.23663 -4.40078,4.24972 -8.52853,5.61247 -12.15093,1.63154 -4.62466,4.68263 -9.63991,6.99044 -15.81549,2.24338 -6.36193,6.60983 -13.67548,7.9871 -21.98739,3.87494 -4.08881,3.75258 -7.26001,8.82137 -15.044,3.05915 -7.25073,7.58774 -17.75748,6.39236 -20.63729,5.30253 l -1.54297,11.82874 c -0.27701,5.60466 -7.962622,7.60129 -7.714877,-0.61184 l 1.350105,-7.54591 c -2.463911,0.32207 -9.660188,2.54131 -11.379444,-6.52619 l 1.542978,-10.19719 c 2.386422,-10.00758 -4.464355,-5.66167 -5.01467,0.40789 l -2.507333,15.29577 c -0.559447,6.83239 -7.281027,6.09165 -7.329132,1.22366 l 2.893078,-15.70366 c 1.219301,-9.35763 -5.107071,-3.59639 -5.593282,1.42761 l -2.314462,15.70366 c -2.167768,8.24972 -8.276853,3.8135 -7.422373,0.71718 l -4.728554,-0.10535 c -4.283591,12.16088 -19.33892,5.2642 -17.112586,4.48676 -13.275956,12.30948 -27.6425934,5.69509 -27.5806729,-5.91437 L 11.27629,125.18589 c 3.667222,-13.2844 20.14827,-13.50293 21.747899,-0.5345 -0.914894,9.66024 -8.58596,8.99879 -8.632613,1.96211 z"
         id="path62"
         sodipodi:nodetypes="cccccccccccccccccccccccccccccccccccccccccccccccccccccccccccccc" />
      <g
         id="g163">
        <path
           style="fill:#ffffff;fill-opacity:1;stroke:#000000;stroke-width:0.244999px;stroke-linecap:butt;stroke-linejoin:miter;stroke-opacity:1"
           d="m 41.714381,136.19842 c 0.57866,-4.40957 5.813599,-5.84289 5.850027,-1.23717 v 3.71151 c -4.611864,0.65583 -6.000543,5.40671 -1.755009,9.12412 -0.596515,3.80398 -5.848384,4.94405 -5.703774,0 z"
           id="path64"
           sodipodi:nodetypes="cccccc" />
        <path
           style="fill:#ffffff;fill-opacity:1;stroke:#000000;stroke-width:0.244999px;stroke-linecap:butt;stroke-linejoin:miter;stroke-opacity:1"
           d="m 105.58936,124.13601 c 0.91406,-5.03889 5.69158,-4.45896 5.33815,0 l -1.90126,12.681 c -2.5019,4.10155 -5.18138,2.95837 -5.37472,0.11597 z"
           id="path66"
           sodipodi:nodetypes="ccccc" />
        <path
           style="fill:#ffffff;fill-opacity:1;stroke:#000000;stroke-width:0.244999px;stroke-linecap:butt;stroke-linejoin:miter;stroke-opacity:1"
           d="m 143.94769,119.43824 c 0.0734,-3.30903 0.4841,-6.21039 3.41269,-6.069 2.44038,1.55477 2.34526,3.22125 1.49952,4.92081 -2.11737,1.65153 -3.61723,1.67065 -4.91221,1.14819 z"
           id="path68"
           sodipodi:nodetypes="cccc" />
        <path
           style="fill:#ffffff;fill-opacity:1;stroke:#000000;stroke-width:0.244999px;stroke-linecap:butt;stroke-linejoin:miter;stroke-opacity:1"
           d="m 182.21118,110.58078 c 0.42888,-4.20276 4.68756,-5.61153 4.80878,0 l -1.13756,10.11499 c -0.63124,4.92236 -5.69359,6.48228 -5.01561,0.54677 z"
           id="path70"
           sodipodi:nodetypes="ccccc" />
      </g>
    </g>
  </g>
</svg>
